<?xml version="1.0" encoding="UTF-8"?>
<svg id="Layer_2" data-name="Layer 2" xmlns="http://www.w3.org/2000/svg" viewBox="0 0 1241.09 465.76">
  <defs>
    <style>
      .cls-1 {
        fill: none;
        stroke: #231f20;
        stroke-miterlimit: 10;
        stroke-width: 3px;
      }

      .cls-2 {
        letter-spacing: .21em;
      }

      .cls-3 {
        letter-spacing: .2em;
      }

      .cls-4 {
        fill: #202020;
      }

      .cls-5 {
        fill: #9c474a;
      }

      .cls-6 {
        fill: #fff;
        font-family: Montserrat-Regular, Montserrat;
        font-size: 64px;
      }

      .cls-7 {
        letter-spacing: .22em;
      }

      .cls-8 {
        letter-spacing: .21em;
      }

      .cls-9 {
        letter-spacing: .19em;
      }
    </style>
  </defs>
  <g id="Layer_1-2" data-name="Layer 1">
    <g>
      <g>
        <path class="cls-4" d="M944.81,3.12c19.12,1.77,42.47,13.9,44.57,35.09,2.93,29.56-17.02,47.47-44.96,50.45,13.09,5.45,20.47,9.53,27.75,21.94,9.01,15.36,20.29,48.49,35.86,56.42,1.09.55,2.23.87,3.45.89v2.34c-11.65-.09-21.15,4.11-29.51-6.37-16.04-20.1-26.66-74.04-57.67-74.04h-28.8c.43,1.01-.79,2.34-.79,2.76v77.66h-17.36s0-167.14,0-167.14h67.46ZM897.63,8.01c-3.58,1.05-1.93,13.2-2.1,16.82-.09,1.87-.8,3.59-.85,5.45-.57,17.97.2,36.12.38,54.09.56.81,1.53.67,2.38.78,11.54,1.39,41.1.5,51.71-3.6,20.17-7.79,26.09-28.74,20.94-48.49-8.44-32.35-47.11-24.32-72.45-25.05Z"/>
        <path class="cls-4" d="M280.86,98.52v71.74c-6.16-.76-12.15,1.69-18.15,0l.36-166.38c.6-.82,1.5-.71,2.37-.8,17.23-1.74,59.19-1.32,75.55,2.64,50.56,12.23,50.07,76.89.62,90.03-19.39,5.15-40.86,1.81-60.75,2.77ZM280.86,94.58h39.06c5.15,0,17.59-4.23,22.23-6.96,28.19-16.64,23.97-67.69-8.86-77.35-10.56-3.11-36.98-3.73-48.1-2.43-1.77.21-3.12.59-4.32,1.99v84.75Z"/>
        <path class="cls-4" d="M627.32,37.74c-4.8-29.61-36.55-38.54-62.24-30.11-26.67,8.76-32.86,40.46-7.21,55.74,29.08,17.33,87.87,18.63,85.97,64.75-2.1,50.78-76.62,56.01-108.84,30.64-9.88-7.78-16.19-21.76-4.41-31.06,3.17,8.1,4.63,15.87,10.25,22.86,19.36,24.07,77.81,25.88,87.59-7.1,17.93-60.47-99.84-37.68-99.88-98.94-.03-46.32,71.56-56.8,99.51-29.99,6.48,6.21,14.19,23.28-.74,23.21Z"/>
        <path class="cls-4" d="M822.12,3.12v11.83c-3.79-.71-7.3-2.67-11.04-3.55-2.13-.5-8.17-1.96-9.87-1.96h-38.27v160.83h-17.36V9.43h-36.69c-1.8,0-7.61,1.48-9.87,1.97-3.92.86-7.95,2.48-11.83,3.55V3.12h134.92Z"/>
        <path class="cls-4" d="M1051.73,3.12l53.66,92.24c8.71-13.32,17.5-27.07,25.88-40.75,8.4-13.72,16.63-27.61,24.75-41.5,4.26-7.29,2.94-11.68,14.06-9.99l-61.54,97.36v69.77h-17.36v-69.77l-59.97-97.37h20.51Z"/>
        <path class="cls-4" d="M19.7,3.12l.78,162.41c29.81-1.25,61.16,4.01,89.5-7.06,2.27.55,1.21,9.75.45,11.78H2.34V3.12h17.36Z"/>
        <path class="cls-4" d="M456.81,3.12v167.14c-5.66-1.14-12.42,2.73-17.36-.4V3.12h17.36Z"/>
        <polygon class="cls-4" points="188.55 3.12 188.55 170.26 171.19 170.26 172.37 3.12 188.55 3.12"/>
        <path class="cls-4" d="M487.58,220.52l9.34.13,32.08,69.23,31.29-69.23,9.35-.13.5,82.44-1.68,1.14h-7.51v-72.53c-6.7,7.03-30.37,71.42-34.34,71.8-1.17.11-2.12-.2-2.67-1.31l-31.63-67.33v69.38h-4.73v-83.57Z"/>
        <path class="cls-4" d="M617.77,304.09v-83.57h38.27c2.22,0,10.52,3.25,12.92,4.44,29.67,14.65,28.61,64.25-2.64,76-1.96.74-9.52,3.14-11.06,3.14h-37.48ZM626.45,299.36h20.91c44.44,0,44.52-74.11,1.58-74.11h-22.49v74.11Z"/>
        <path class="cls-4" d="M1217.42,3.91c1.54,0,3.03-.39,4.35.78,2.82,2.49,4.63,13.22,8.27,15.78,1.03-2.72,5.21-14.29,6.69-15.79,1.18-1.2,2.93-.73,4.36-.77v22.07h-3.16v-14.98c-2.89,1.95-5.97,16.02-9.09,15.72l-8.27-15.72v14.98h-3.16V3.91Z"/>
        <polygon class="cls-4" points="1213.47 3.91 1213.48 6.27 1206.37 6.28 1206.37 25.99 1202.54 24.69 1202.43 6.27 1196.11 6.27 1196.12 3.91 1213.47 3.91"/>
        <line class="cls-1" y1="262.3" x2="436.56" y2="262.3"/>
        <line class="cls-1" x1="729.21" y1="262.3" x2="1165.76" y2="262.3"/>
      </g>
      <g>
        <rect class="cls-5" x="1.32" y="366.18" width="1163.43" height="99.57"/>
        <text class="cls-6" transform="translate(148.73 437.79)"><tspan class="cls-8" x="0" y="0">C</tspan><tspan class="cls-7" x="59.14" y="0">O</tspan><tspan class="cls-2" x="126.91" y="0">L</tspan><tspan class="cls-7" x="177.79" y="0">OR TH</tspan><tspan class="cls-9" x="453.69" y="0">A</tspan><tspan class="cls-7" x="511.42" y="0">T </tspan><tspan class="cls-3" x="593.08" y="0">C</tspan><tspan class="cls-7" x="652.03" y="0">ARES</tspan></text>
      </g>
    </g>
  </g>
</svg>